<svg xmlns="http://www.w3.org/2000/svg" version="1.1" xmlns:xlink="http://www.w3.org/1999/xlink" viewBox="0 0 200 200"><rect width="200" height="200" fill="url('#gradient')"></rect><defs><linearGradient id="gradient" gradientTransform="rotate(45 0.5 0.5)"><stop offset="0%" stop-color="#c0362c"></stop><stop offset="100%" stop-color="#c0362c"></stop></linearGradient></defs><g><g fill="#f0f0f0" transform="matrix(3.2450062310842087,0,0,3.2450062310842087,10.327414312001565,123.0601443146734)" stroke="#F0F0F)" stroke-width="0"><path d="M10.11-14.22L12.09-5.30L13.72-14.22L17.12-14.22L14.10 0L10.55 0L8.64-8.11L6.78 0L3.23 0L0.21-14.22L3.61-14.22L5.24-5.30L7.20-14.22L10.11-14.22ZM26.25 0L23.74-5.02L21.88-5.02L21.88 0L18.46 0L18.46-14.22L24.05-14.22Q26.58-14.22 28.01-13.10Q29.43-11.97 29.43-9.92L29.43-9.92Q29.43-8.44 28.83-7.46Q28.23-6.48 26.95-5.88L26.95-5.88L29.92-0.15L29.92 0L26.25 0ZM21.88-11.57L21.88-7.67L24.05-7.67Q25.03-7.67 25.52-8.18Q26.02-8.69 26.02-9.61Q26.02-10.53 25.52-11.05Q25.02-11.57 24.05-11.57L24.05-11.57L21.88-11.57ZM39.37 0L36.34-5.29L34.93-3.75L34.93 0L31.50 0L31.50-14.22L34.93-14.22L34.93-7.95L36.12-9.76L39.19-14.22L43.43-14.22L38.62-7.93L43.43 0L39.37 0ZM51.63-3.78L51.63-3.78Q51.63-4.53 51.10-4.95Q50.57-5.37 49.23-5.82Q47.89-6.27 47.04-6.69L47.04-6.69Q44.28-8.05 44.28-10.42L44.28-10.42Q44.28-11.60 44.97-12.50Q45.65-13.41 46.91-13.91Q48.17-14.41 49.75-14.41L49.75-14.41Q51.28-14.41 52.50-13.87Q53.71-13.32 54.38-12.31Q55.06-11.30 55.06-10L55.06-10L51.64-10Q51.64-10.87 51.11-11.35Q50.58-11.83 49.67-11.83L49.67-11.83Q48.75-11.83 48.22-11.42Q47.69-11.02 47.69-10.39L47.69-10.39Q47.69-9.84 48.27-9.40Q48.86-8.96 50.33-8.48Q51.81-8.01 52.75-7.46L52.75-7.46Q55.06-6.13 55.06-3.80L55.06-3.80Q55.06-1.93 53.65-0.87Q52.25 0.20 49.79 0.20L49.79 0.20Q48.07 0.20 46.67-0.42Q45.26-1.04 44.56-2.12Q43.85-3.20 43.85-4.61L43.85-4.61L47.29-4.61Q47.29-3.47 47.88-2.92Q48.47-2.38 49.79-2.38L49.79-2.38Q50.64-2.38 51.14-2.75Q51.63-3.12 51.63-3.78Z"></path></g></g></svg>